<?xml version="1.0" encoding="UTF-8"?>
<svg id="Modrinth--Streamline-Simple-Icons" xmlns="http://www.w3.org/2000/svg" version="1.1" viewBox="0 0 24 24">
  <!-- Generator: Adobe Illustrator 29.1.0, SVG Export Plug-In . SVG Version: 2.1.0 Build 142)  -->
  <defs>
    <style>
      .st0 {
        fill: #fff;
      }
    </style>
  </defs>
  <path class="st0" d="M12.3,0c-3.4,0-6.6,1.3-8.9,3.7-.9.9-1.6,2-2.2,3.1C.4,8.5,0,10.2,0,12,0,13.4.2,14.5.6,15.8c.2.8.8,1.9,1.2,2.5,2,3.1,5.2,5.2,8.9,5.6.4,0,2.5,0,2.8,0,.2,0,.2.1-.3-1.7l-.4-1.4h-1c-1.9,0-3.7-.7-5.2-1.9-.5-.3-.9-.8-1.3-1.3,0,0,.3-.3.7-.5.9-.6,1.9-1.1,2.9-1.6,0,0,.5.5,1.1,1l1,1,2.1-.4,2.1-.4,1.5-1.5c.8-.8,1.5-1.5,1.5-1.5,0,0-.4-1.6-.5-1.7,0,0-.2,0-1,.2-.5.1-1.2.3-1.4.4h-.5c0,.1-.5.7-.5.7l-.5.5h-.9c0,.1-.9.2-.9.2l-.5-.5c-.5-.4-.9-1-1-1.7v-.6c-.1,0,.3-.6.3-.6q.7-.9,1.5-1.1c.4-.1.6-.2.8-.3.1,0,.6-.6,1.1-1.1l.9-.9-.7-.7-.7-.7-1.9.5c-1.1.3-2,.5-2,.5,0,0-2.2,2.5-2.6,3l-.3.4.3,1c.2.6.3,1.2.3,1.3v.3s-.3.2-.3.2c-.4.2-2.2,1.3-2.8,1.6-.4.2-.4.2-.4.1,0-.1-.2-.6-.3-1-.2-.9-.2-2.8,0-3.7.8-3.8,4-6.6,7.9-6.9.4,0,.8,0,.8,0,0-.2.5-3,.5-3,0,0-.1,0-.2,0h0ZM15.9.7c-.2,0-.3.1-.4.4,0,.2-.5,2.4-.5,2.5s.1.1.2.2c1.1.4,2.1,1.1,3,2,1,1,1.7,2.1,2.2,3.4.3.9.5,1.8.4,2.8,0,1.1,0,1.3-.1,1.7-.3,1.4-.9,2.7-1.8,3.8-.3.4-1,1.1-1.4,1.4-.4.3-1.5,1.1-1.7,1.1-.1,0-.1,0,0,.3,0,.2.6,2.6.7,2.8h0c3.9-1.6,6.7-5.1,7.3-9.3.1-.8.1-2.6,0-3.4-.5-3.6-2.6-6.7-5.7-8.6-.7-.4-2-1.1-2.2-1.1h0Z"/>
</svg>
